<svg data-name="Layer 1" xmlns="http://www.w3.org/2000/svg" width="1400" height="1400"><path fill="none" pointer-events="none" d="M0 0h1400v1400H0z"/><path d="M0 0h1400v1400H0V0z" data-name="&lt;Rectangle&gt;" class="cls-1" fill="none"/><path class="cls-2" d="M1131.82 521.46l-1.6-2.81-1.62-2.82-4-6.68-.68-1.11s-14.89-23-23.15-33.9L958.87 532l-29.49 12-10.51-15-.87-1.23-6.94-9.87c-.75-1.07-2.3-3.18-2.3-3.18l-.76-1.02c-72.59-100-219-118.26-315-42.3-45.61 36.09-76.36 89.5-83.47 147.33a224.23 224.23 0 009 94.75c8.91 28.12 25.31 65.84 49.56 84-4.56-24.06-12.13-46.14-12.55-71.22a218.86 218.86 0 0111.1-72.92C600.9 550.72 714.09 486.57 819.75 510.2c27.12 6.07 53 17.85 76 33.36a218.43 218.43 0 0131.86 26c2.16 2.14 23.16 28.06 23.38 28l182.17-74.11z" fill="#212040"/><path class="cls-3" d="M1119.75 342.51a540.81 540.81 0 00-51.86-57.51C872.07 97.05 547.57 111.7 365 309.91 297.9 382.71 253.22 476 239.07 574c-.11.72-.22 1.44-.32 2.17-.16 1.13-.3 2.27-.46 3.41-.1.8-.22 1.6-.32 2.4-.16 1.24-.3 2.49-.45 3.73-.09.7-.18 1.39-.26 2.09-.22 1.95-.44 3.9-.64 5.85 3.61 3.76 10.72 11.07 11.13 11.48C308.37 667.5 374 723 442.54 776.25l2.79 2s24.83 16.73 24.62 17q8.24 5.49 16.39 10.67l1.05.67c2.37 1.5 4.73 3 7.08 4.43l1.94 1.19 2.15 1.31 1.87 1.14 2.32 1.42 2.69 1.6q2.85 1.71 5.69 3.37l3.4 2c1.68 1 3.36 1.94 5 2.88 1.4.8 2.79 1.57 4.19 2.35s2.85 1.6 4.27 2.38c1.8 1 3.59 1.95 5.38 2.91 1 .56 2.07 1.13 3.1 1.67 2.19 1.17 4.38 2.3 6.56 3.43 0 0 .05-.11.08-.16a11 11 0 01.84-1.33C462 778.22 453 628 487.23 545.49c71.47-172.35 313.07-213.4 437.29-74.76.08-.29 5.68 6.1 5.36 6.15q7.32 8.72 13.9 18.05l218.75-89.47s-38.88-57.95-42.78-62.95z" fill="#5ac780"/><path class="cls-4" d="M374.75 1046.69c-.3.66 0 1.19 1.5 1.31z" fill="#00acc1"/><path class="cls-5" d="M262.33 948.5h.06" fill="none"/><path class="cls-4" d="M729.34 1140.89h3.23-5.87z" fill="#00acc1"/><path class="cls-6" d="M645.17 921.2q2.54.54 5.09 1-2.55-.46-5.09-1zm60.28 8.66c1.75.13 3.5.25 5.26.36-1.71-.11-3.51-.22-5.26-.36zM652 922.59q3.31.64 6.66 1.25-3.38-.6-6.66-1.25zm7.81 1.46q2.79.51 5.59 1-2.8-.49-5.59-1zm37.09 5.09zm-6.9-.71c1.88.21 3.76.4 5.65.59-1.88-.19-3.77-.38-5.65-.59zm-7.44-.89q2.69.35 5.39.66-2.7-.31-5.39-.66zm-8.28-1.13q3.38.5 6.77.94-3.39-.45-6.77-.94zm-36.92-6.91q2.91.66 5.84 1.29-2.92-.63-5.84-1.29zm-22.2-5.59q3.17.87 6.38 1.71-3.21-.84-6.38-1.71zm14.93 3.88c2.16.52 4.33 1 6.51 1.54-2.18-.5-4.35-1.02-6.51-1.54zm-6.67-1.68q2.43.63 4.87 1.23-2.44-.6-4.87-1.23zm43.99 9.24l5.36.83zM771.84 929c1.7-.18 3.39-.38 5.09-.6-1.7.21-3.39.41-5.09.6zm-7.84.76q3.22-.27 6.44-.61-3.19.35-6.44.61zm15-1.64c1.53-.21 3.05-.43 4.58-.66-1.5.23-3.03.45-4.58.66zm6.54-.95zm-28.09 3.08l4.89-.36zm-16.26.66c-1.88 0-3.78.06-5.67.06 1.89.03 3.79.03 5.67-.06zm-21.56-.23zm30.9-.06zm-22.19.29l5.15.06zm-15.59-.57zm29.37.56c2.19 0 4.36-.11 6.54-.19-2.18.08-4.35.15-6.54.19z" fill="none"/><path class="cls-4" d="M1081.62 1051.92a535.89 535.89 0 01-838.14-178.4c44.19 218.18 237.05 382.42 468.27 382.42 160.3 0 302.18-79 388.85-200.1a2.31 2.31 0 00.19-.28 393.44 393.44 0 0032.37-54.7l-.33-.13a539.07 539.07 0 01-51.21 51.19z" fill="#00acc1"/><path class="cls-3" d="M952.35 815.38l-1.19 1.62s-2.08 2.82-3.19 4.29c.84-.25 1.22-.36 1.34-.38-.19.1-1.45.52-1.45.52l-9.46 11.78-.58.69s-10.82 12.28-17.29 18.65c-33.62 33.26-81.92 65.12-128.65 73.56-2.1.38-4.22.73-6.34 1.06l-1.94.29c-1.53.23-3.05.45-4.58.66l-2.09.27c-1.7.22-3.39.42-5.09.6l-1.38.16q-3.21.35-6.44.61l-1.68.13-4.89.36-2.16.13c-1.59.09-3.17.17-4.76.24l-1.87.09c-2.18.08-4.35.15-6.54.19h-.93c-1.88 0-3.78.06-5.67.06h-2l-5.15-.06h-1.9c-2.27 0-4.54-.11-6.81-.2h-.8c-2-.08-4.06-.19-6.08-.3l-2-.12c-1.76-.11-3.51-.23-5.26-.36l-1.74-.13c-2.27-.18-4.54-.37-6.81-.59l-1.25-.12c-1.89-.19-3.77-.38-5.65-.59l-2-.23q-2.7-.32-5.39-.66l-1.51-.19q-3.39-.45-6.77-.94l-1.51-.23-5.36-.83-2-.33q-2.8-.46-5.59-1l-1.19-.21q-3.35-.6-6.66-1.25l-1.7-.34q-2.55-.51-5.09-1l-2-.41q-2.93-.63-5.84-1.29l-.76-.17c-2.18-.5-4.35-1-6.51-1.54l-1.8-.45q-2.44-.6-4.87-1.23l-1.88-.49q-3.21-.84-6.38-1.71-3.36-.93-6.71-1.91C510.42 883.41 422.23 823.8 343 755.81q-2.7-2.31-5.39-4.65-13.54-11.73-26.61-23.65c-14-12.7-27.63-25.58-41-38.49q-5-4.85-10-9.69-7.46-7.27-14.78-14.54l-2.53-2.5q-4.36-4.29-8.69-8.69.2 19.08 1.82 37.79.54 6.23 1.23 12.42t1.53 12.33q.84 6.15 1.83 12.24 1.49 9.14 3.3 18.17c26.62 132.38 106 245.67 215.24 317q2.49 1.62 5 3.21 5 3.18 10.09 6.25 2.55 1.55 5.11 3 10.26 6 20.82 11.55 2.64 1.38 5.29 2.73 8 4.07 16.12 7.83 2.71 1.26 5.44 2.49 5.46 2.44 11 4.77 19.37 8.13 39.52 14.64 5.76 1.86 11.57 3.57a495.58 495.58 0 00140.67 20.25c166.28 0 313.44-81.89 403.34-207.55a3 3 0 00.2-.29 408.37 408.37 0 0033.57-56.74l-203.81-80.6c-4.7 7.48-10.53 16.72-10.53 16.72z" fill="#207ce9"/><path d="M654.328 399.104l-2.686 5.374" fill="#212040" paint-order="fill"/></svg>